<svg width="24" height="24" viewBox="0 0 24 24" fill="none" xmlns="http://www.w3.org/2000/svg">
<path fill-rule="evenodd" clip-rule="evenodd" d="M8.3383 12.9506C8.42236 13.3298 8.14407 13.6977 7.7167 13.7723C6.87958 13.9184 6.39862 14.2648 6.13923 14.6452C5.87095 15.0386 5.79257 15.5384 5.91343 16.0449C6.15801 17.0699 7.14716 17.9273 8.56192 17.7962C8.99512 17.756 9.38299 18.0351 9.42825 18.4194C9.47351 18.8038 9.15902 19.148 8.72583 19.1882C6.3577 19.4077 4.74889 17.9212 4.37036 16.3348C4.17967 15.5357 4.28345 14.6631 4.78978 13.9206C5.305 13.1651 6.19112 12.6122 7.41226 12.399C7.83963 12.3244 8.25423 12.5714 8.3383 12.9506Z" fill="#25C15D"/>
<path fill-rule="evenodd" clip-rule="evenodd" d="M8.23523 10.5095C8.62287 10.6857 8.77612 11.1074 8.57752 11.4514C8.15266 12.1872 8.53811 13.1191 9.44881 13.5125C9.84044 13.6816 10.0034 14.1004 9.81278 14.4479C9.62217 14.7954 9.15017 14.94 8.75854 14.7709C7.16376 14.0821 6.29201 12.3404 7.17374 10.8132C7.37234 10.4693 7.84758 10.3333 8.23523 10.5095Z" fill="#25C15D"/>
<path fill-rule="evenodd" clip-rule="evenodd" d="M11.233 11.1646C11.1542 10.3274 10.216 9.66024 9.15209 9.68818C8.71672 9.69962 8.35334 9.39572 8.34046 9.0094C8.32757 8.62309 8.67006 8.30065 9.10542 8.28921C10.8257 8.24403 12.642 9.3192 12.8049 11.048C12.8411 11.4332 12.5187 11.7715 12.0846 11.8037C11.6506 11.8358 11.2693 11.5497 11.233 11.1646Z" fill="#25C15D"/>
<path fill-rule="evenodd" clip-rule="evenodd" d="M6.66578 7.33828C5.88316 7.9456 5.59306 8.81515 6.18674 9.68399C6.19955 9.70273 6.21136 9.722 6.22212 9.74172L6.24662 9.78659C6.42562 10.1145 6.29116 10.5094 5.9375 10.6944C4.57931 11.4052 4.45101 13.0804 5.63467 13.9242C5.97423 14.1662 6.02835 14.6067 5.75557 14.908C5.48278 15.2093 4.98639 15.2573 4.64683 15.0153C2.77969 13.6843 2.82126 11.2183 4.53677 9.87455C3.91542 8.4831 4.53769 7.1304 5.62744 6.28474C6.83046 5.3512 8.71947 4.92946 10.3952 5.67218C10.7848 5.84489 10.9429 6.26517 10.7483 6.61093C10.5537 6.95668 10.08 7.09696 9.69036 6.92426C8.68471 6.47853 7.47459 6.71064 6.66578 7.33828Z" fill="#25C15D"/>
<path fill-rule="evenodd" clip-rule="evenodd" d="M9.62053 4.53942C9.00244 4.81715 8.63699 5.3037 8.71891 5.92079C8.76986 6.30462 8.4605 6.65243 8.02794 6.69764C7.59537 6.74285 7.2034 6.46835 7.15245 6.08452C6.97762 4.76751 7.82728 3.77639 8.90797 3.2908C9.96501 2.81584 11.3527 2.7669 12.4594 3.37594C12.6913 3.50356 12.8324 3.7285 12.8324 3.97065V20.2716C12.8324 20.5722 12.616 20.8393 12.2948 20.935C11.3421 21.2188 10.298 21.0957 9.46958 20.6846C8.63298 20.2695 7.95977 19.5285 7.86449 18.5511C7.82696 18.1661 8.14831 17.8269 8.58224 17.7936C9.01618 17.7603 9.39838 18.0455 9.43591 18.4305C9.47855 18.8679 9.77649 19.2334 10.2394 19.4631C10.5481 19.6162 10.9053 19.6948 11.2551 19.6889V4.41239C10.7401 4.26299 10.1318 4.30971 9.62053 4.53942Z" fill="#25C15D"/>
<path fill-rule="evenodd" clip-rule="evenodd" d="M18.6155 13.9268C18.9982 13.7423 19.477 13.8681 19.6849 14.2078C20.4911 15.5251 20.1384 16.8746 19.254 17.8177C18.3891 18.7399 16.9774 19.3249 15.5246 19.1884C15.0914 19.1478 14.7775 18.8032 14.8233 18.4189C14.8691 18.0346 15.2574 17.756 15.6905 17.7966C16.575 17.8797 17.4843 17.5167 18.0416 16.9224C18.5794 16.3489 18.7502 15.6132 18.2988 14.8757C18.0909 14.5361 18.2327 14.1112 18.6155 13.9268Z" fill="#25C15D"/>
<path fill-rule="evenodd" clip-rule="evenodd" d="M16.8736 13.5332C17.3092 13.533 17.6624 13.8461 17.6627 14.2326C17.6633 15.358 16.874 16.3946 15.7219 16.891C15.3301 17.0599 14.8583 16.9149 14.668 16.5672C14.4777 16.2196 14.6411 15.8009 15.0329 15.6321C15.6881 15.3497 16.0857 14.7779 16.0854 14.2334C16.0851 13.8469 16.438 13.5334 16.8736 13.5332Z" fill="#25C15D"/>
<path fill-rule="evenodd" clip-rule="evenodd" d="M11.4424 14.6986C11.6055 12.9699 13.4214 11.8947 15.1419 11.9398C15.5772 11.9513 15.9197 12.2737 15.9068 12.66C15.8939 13.0464 15.5306 13.3503 15.0952 13.3388C14.0313 13.3109 13.0932 13.978 13.0142 14.8153C12.9779 15.2004 12.5966 15.4865 12.1626 15.4543C11.7285 15.422 11.4061 15.0837 11.4424 14.6986Z" fill="#25C15D"/>
<path fill-rule="evenodd" clip-rule="evenodd" d="M15.5319 5.89863C15.593 5.51597 15.9921 5.24969 16.4234 5.30388C17.7455 5.47001 18.847 6.19822 19.4442 7.14573C19.9499 7.94802 20.1058 8.93193 19.706 9.87036C21.4275 11.213 21.4705 13.6839 19.5992 15.0152C19.2593 15.2569 18.763 15.2085 18.4905 14.9069C18.2181 14.6054 18.2727 14.165 18.6126 13.9232C19.7975 13.0803 19.6692 11.4042 18.3098 10.6942C17.9521 10.5075 17.8188 10.1068 18.0047 9.77763L18.03 9.73276C18.0394 9.71605 18.0496 9.69968 18.0605 9.6837C18.4723 9.08053 18.4314 8.40607 18.0676 7.82893C17.6974 7.24163 17.0102 6.79116 16.2022 6.68963C15.771 6.63544 15.4709 6.2813 15.5319 5.89863Z" fill="#25C15D"/>
<path fill-rule="evenodd" clip-rule="evenodd" d="M15.3375 3.29094C16.4171 3.77711 17.2642 4.76769 17.0953 6.08195C17.046 6.46595 16.6552 6.74176 16.2224 6.69798C15.7897 6.65421 15.4789 6.30743 15.5282 5.92343C15.6077 5.3047 15.2406 4.8168 14.6237 4.53898C14.1137 4.3093 13.5067 4.2623 12.9915 4.41218V19.6956C13.084 19.6989 13.1772 19.6965 13.2701 19.688C13.5472 19.6629 13.81 19.586 14.0382 19.4662L14.0382 19.4662C14.2661 19.3466 14.4511 19.1888 14.5831 19.0088C14.7147 18.8292 14.791 18.6313 14.8106 18.4305C14.8481 18.0455 15.2303 17.7604 15.6643 17.7937C16.0982 17.827 16.4196 18.1661 16.382 18.5512C16.3396 18.9864 16.1749 19.4043 15.9052 19.7721C15.6358 20.1394 15.2701 20.4458 14.8411 20.6709C14.4122 20.896 13.9294 21.0351 13.4305 21.0804C12.9317 21.1256 12.426 21.0763 11.9518 20.935C11.6306 20.8393 11.4142 20.5723 11.4142 20.2716V3.97069C11.4142 3.72856 11.5552 3.50364 11.7871 3.37601C12.895 2.76621 14.281 2.81516 15.3375 3.29094Z" fill="#25C15D"/>
<path fill-rule="evenodd" clip-rule="evenodd" d="M15.527 9.48432C15.5644 9.09926 15.9464 8.81396 16.3804 8.8471C17.2993 8.91727 18.1971 9.12175 19.031 9.45189C19.4288 9.60935 19.6074 10.0231 19.43 10.3761C19.2525 10.729 18.7862 10.8875 18.3884 10.73C17.7173 10.4644 16.9913 10.2985 16.2452 10.2415C15.8112 10.2084 15.4897 9.86938 15.527 9.48432Z" fill="#25C15D"/>
</svg>
