<svg width="24" height="24" viewBox="0 0 24 24" fill="none" xmlns="http://www.w3.org/2000/svg">
<path fill-rule="evenodd" clip-rule="evenodd" d="M2.00602 7.02947C1.89742 5.34185 3.27195 3.93213 4.9574 4.00253L19.2789 4.61415C20.8846 4.68122 22.1147 6.0698 21.9915 7.67613L21.5583 15.6707C21.4835 16.6453 20.9683 17.2755 20.395 17.6787C19.5195 18.2945 18.6464 19.1359 18.6457 20.2063C18.6454 20.6204 18.6562 21.0048 18.6891 21.2349C18.7493 21.6567 18.2671 21.938 17.931 21.6771C17.931 21.6771 16.2516 19.9356 13.8857 19.2241C12.1022 18.6877 9.50334 19.0016 7.46325 19.2481C6.79706 19.3285 6.19045 19.4018 5.69127 19.4359C4.12289 19.5431 2.76618 18.3523 2.66497 16.7796L2.00602 7.02947ZM12.1546 7.41637C12.6798 7.38879 13.1278 7.79301 13.1554 8.31922L13.4848 14.6182C13.5123 15.1444 13.1089 15.5933 12.5837 15.6209C12.0586 15.6485 11.6105 15.2443 11.583 14.7181L11.4681 12.5214L8.87946 12.6573L8.99436 14.854C9.02188 15.3802 8.61845 15.8291 8.09327 15.8567C7.56809 15.8843 7.12004 15.4801 7.09252 14.9539L6.92798 11.8081L6.92778 11.8044L6.92759 11.8007L6.76305 8.65489C6.73552 8.12868 7.13895 7.67975 7.66413 7.65217C8.18931 7.62459 8.63737 8.02881 8.66489 8.55502L8.77979 10.7517L11.3684 10.6158L11.2535 8.41909C11.226 7.89288 11.6294 7.44395 12.1546 7.41637ZM16.2369 9.7819C16.762 9.80948 17.2101 9.40526 17.2376 8.87905C17.2651 8.35284 16.8617 7.90391 16.3365 7.87633C15.8114 7.84875 15.3633 8.25297 15.3358 8.77918C15.3083 9.30539 15.7117 9.75432 16.2369 9.7819ZM17.0439 11.5103C17.0714 10.9841 16.668 10.5351 16.1428 10.5076C15.6176 10.48 15.1696 10.8842 15.1421 11.4104L14.9779 14.549C14.9504 15.0752 15.3538 15.5241 15.879 15.5517C16.4042 15.5793 16.8522 15.1751 16.8797 14.6489L17.0439 11.5103Z" fill="#FF6170"/>
<path d="M13.1554 8.31922C13.1278 7.79301 12.6798 7.38879 12.1546 7.41637C11.6294 7.44395 11.226 7.89288 11.2535 8.41909L11.3684 10.6158L8.77979 10.7517L8.66489 8.55502C8.63737 8.02881 8.18931 7.62459 7.66413 7.65217C7.13895 7.67975 6.73552 8.12868 6.76305 8.65489L6.92759 11.8007L6.92778 11.8044L6.92798 11.8081L7.09252 14.9539C7.12004 15.4801 7.56809 15.8843 8.09327 15.8567C8.61845 15.8291 9.02188 15.3802 8.99436 14.854L8.87946 12.6573L11.4681 12.5214L11.583 14.7181C11.6105 15.2443 12.0586 15.6485 12.5837 15.6209C13.1089 15.5933 13.5123 15.1444 13.4848 14.6182L13.1554 8.31922Z" fill="white"/>
<path d="M17.2376 8.87905C17.2101 9.40526 16.762 9.80948 16.2369 9.7819C15.7117 9.75432 15.3083 9.30539 15.3358 8.77918C15.3633 8.25297 15.8114 7.84875 16.3365 7.87633C16.8617 7.90391 17.2651 8.35284 17.2376 8.87905Z" fill="white"/>
<path d="M16.1428 10.5076C16.668 10.5351 17.0714 10.9841 17.0439 11.5103L16.8797 14.6489C16.8522 15.1751 16.4042 15.5793 15.879 15.5517C15.3538 15.5241 14.9504 15.0752 14.9779 14.549L15.1421 11.4104C15.1696 10.8842 15.6176 10.48 16.1428 10.5076Z" fill="white"/>
</svg>
