<svg width="24" height="24" viewBox="0 0 24 24" fill="none" xmlns="http://www.w3.org/2000/svg">
<path d="M20.2128 19.9985C21.0651 19.9659 21.824 19.3964 21.9305 18.5457C21.9764 18.1793 22 17.8066 22 17.4286C22 12.2213 17.5228 8 12 8C9.68137 8 7.54704 8.74402 5.85094 9.99266C7.90805 15.8225 13.4662 20 20 20C20.0711 20 20.142 19.9995 20.2128 19.9985Z" fill="#6ECC4D"/>
<path d="M4.26653 11.4506C2.85016 13.0776 2 15.1595 2 17.4286C2 17.8066 2.02359 18.1793 2.06946 18.5457C2.17918 19.4221 2.98129 20 3.86452 20H11.9929C8.5228 18.1438 5.77197 15.1186 4.26653 11.4506Z" fill="#6ECC4D"/>
<path d="M20 7C20 9.88413 18.6136 11.3819 15.3966 15.4918C15.1956 15.7485 14.8044 15.7485 14.6034 15.4917C11.3866 11.3819 10 9.88413 10 7C10 4.23858 12.2386 2 15 2C17.7614 2 20 4.23858 20 7Z" fill="#765FDE"/>
<path d="M15 10C16.6569 10 18 8.65685 18 7C18 5.34315 16.6569 4 15 4C13.3431 4 12 5.34315 12 7C12 8.65685 13.3431 10 15 10Z" fill="white"/>
</svg>
