<svg width="194" height="274" viewBox="0 0 194 274" fill="none" xmlns="http://www.w3.org/2000/svg">
<path fill-rule="evenodd" clip-rule="evenodd" d="M59.7376 217.995L41.2221 211.357L38.7277 227.951L24.1588 224.66L23.7613 239.368L11.4521 239.941L13.0858 252.029L59.7376 217.995Z" fill="#0D1013"/>
<path fill-rule="evenodd" clip-rule="evenodd" d="M129.408 221.478C128.627 213.035 120.923 212.196 114.621 219.461C108.244 226.814 106.71 235.204 106.556 243.659C106.402 252.113 106.251 273.58 106.251 273.58H148.568L134.798 263.52C134.798 263.52 130.198 230.012 129.408 221.478Z" fill="#7A5F9A"/>
<path fill-rule="evenodd" clip-rule="evenodd" d="M137.294 265.343L132.029 273.58H148.568L137.294 265.343Z" fill="#0D1013"/>
<path fill-rule="evenodd" clip-rule="evenodd" d="M139.003 144.657C150.057 150.057 161.274 150.073 167.346 144.326C168.574 143.164 169.972 141.406 170.994 138.73C169.605 134.957 167.651 128.123 168.99 122.805C171.214 123.262 177.036 128.394 177.036 128.394C177.036 128.394 178.958 122.583 183.411 120.778C185.426 124.106 184.369 130.87 184.369 130.87C184.369 130.87 189.269 128.823 193.724 129.513C191.772 136.823 183.377 141.309 183.377 141.309C182.71 144.721 179.518 159.06 166.516 167.941C158.951 173.108 151.228 174.267 148.355 174.667C143.377 175.36 139.069 175.96 134.23 173.995C127.265 171.166 120.972 163.742 121.291 155.527C121.353 153.919 121.655 147.145 127.104 144.078C130.229 142.319 134.373 142.494 139.003 144.657Z" fill="#7A5F9A"/>
<path fill-rule="evenodd" clip-rule="evenodd" d="M178.535 131.137C180.68 131.181 182.384 132.951 182.34 135.089C182.296 137.228 180.521 138.926 178.375 138.882C176.23 138.837 174.526 137.068 174.57 134.929C174.614 132.79 176.389 131.093 178.535 131.137Z" fill="#FACD00"/>
<path fill-rule="evenodd" clip-rule="evenodd" d="M74.9403 172.226C62.7381 170.66 52.1094 174.245 48.2033 181.636C47.4133 183.131 46.6538 185.245 46.5451 188.107C49.0712 191.235 53.1151 197.08 53.5543 202.546C51.3011 202.828 44.1398 199.835 44.1398 199.835C44.1398 199.835 44.1843 205.956 40.5468 209.095C37.5703 206.589 36.4001 199.845 36.4001 199.845C36.4001 199.845 32.4164 203.356 27.9754 204.132C27.4778 196.583 33.9891 189.639 33.9891 189.639C33.5253 186.194 31.9464 171.589 41.4095 159.005C46.9157 151.683 53.8586 148.106 56.451 146.805C60.9433 144.551 66.2922 143.304 71.5058 143.612C79.01 144.056 85.8924 148.363 88.2268 156.246C88.6838 157.789 90.5727 164.302 86.3961 168.956C84.0015 171.624 80.0195 172.788 74.9403 172.226Z" fill="#7A5F9A"/>
<path fill-rule="evenodd" clip-rule="evenodd" d="M70.5961 131.411L54.4648 120.657L65.2191 107.214L48.7516 95.1154L63.8747 78.312L42.3662 65.2053L62.8663 48.7379L70.5961 131.411Z" fill="#0D1013"/>
<path fill-rule="evenodd" clip-rule="evenodd" d="M144.542 101.282C144.542 101.282 144.2 111.045 142.506 122.201C137.192 157.195 140.916 166.428 132.416 206.617C129.89 218.561 128.628 224.533 127.583 226.213C111.434 252.192 65.2006 237.045 6.83405 267.989C3.89525 269.547 1.52571 270.904 0 271.796C1.28092 268.217 3.24372 263.781 6.29589 259.083C10.043 253.316 14.1441 249.138 17.3945 246.303C27.3762 235.87 36.9348 229.264 44.3612 225C54.6752 219.078 59.8759 218.413 64.7483 212.496C72.7238 202.811 72.1525 190.146 71.5689 180.236C68.4993 128.108 64.9953 82.6071 61.856 46.0444C61.856 46.0444 64.5601 46.5692 68.9859 47.6721C79.8827 50.3492 101.205 56.4569 118.587 66.56C126.357 71.0768 144.542 101.282 144.542 101.282Z" fill="#FF647A"/>
<path fill-rule="evenodd" clip-rule="evenodd" d="M118.585 66.5598H118.384C90.2538 65.8332 83.2045 88.1111 97.7068 92.4295C97.7068 92.4295 102.617 176.146 101.675 194.778C100.949 208.998 98.0565 218.119 85.922 226.258C60.2809 243.437 31.6131 243.639 6.83301 267.989C15.8061 263.872 34.8686 257.388 71.2451 253.365C84.6522 251.804 94.9967 248.104 101.783 245.1C111.079 240.986 120.245 236.93 127.034 227.805C133.505 219.108 134.882 209.924 135.455 204.343C139.378 166.147 144.751 114.425 144.751 114.425C144.793 113.953 144.914 112.587 145.047 110.779C145.419 105.739 145.541 101.983 145.545 101.833C145.684 97.0824 134.785 83.0766 118.585 66.5598Z" fill="#FACD00"/>
<path fill-rule="evenodd" clip-rule="evenodd" d="M66.9983 221.751C68.3621 212.261 74.0651 204.2 80.9209 212.363C87.7766 220.527 93.2519 235.19 93.4153 244.657C93.5789 254.124 93.0585 273.946 93.0585 273.946H48.0781L62.7146 262.681C62.7146 262.681 65.3209 233.425 66.9983 221.751Z" fill="#7A5F9A"/>
<path fill-rule="evenodd" clip-rule="evenodd" d="M59.5061 265.151L64.7448 273.946H48.0781L59.5061 265.151Z" fill="#0D1013"/>
<path fill-rule="evenodd" clip-rule="evenodd" d="M174.352 66.9546C172.138 41.6201 148.025 41.3814 110.627 43.3615C96.3252 44.1186 62.1953 45.7138 62.1953 45.7138C64.8095 64.4425 73.073 75.8565 76.8725 81.7201C99.0009 115.868 143.053 111.831 144.961 111.784C154.639 111.549 171.494 110.258 173.488 109.995C173.488 109.995 176.568 92.3128 174.352 66.9546Z" fill="#FF647A"/>
<path fill-rule="evenodd" clip-rule="evenodd" d="M163.803 35.86C169.441 37.2392 172.244 44.3594 170.062 51.7636C167.88 59.1678 161.541 64.0521 155.902 62.6729C150.263 61.2937 147.461 54.1736 149.643 46.7693C151.825 39.3651 158.164 34.4808 163.803 35.86Z" fill="#FF647A"/>
<path fill-rule="evenodd" clip-rule="evenodd" d="M163.714 42.6367C165.689 43.5839 166.191 46.9376 164.835 50.1273C163.479 53.3173 160.779 55.1353 158.804 54.1883C156.829 53.2412 156.327 49.8874 157.683 46.6975C159.039 43.5076 161.739 41.6896 163.714 42.6367Z" fill="#0D1013"/>
<path fill-rule="evenodd" clip-rule="evenodd" d="M182.834 47.422C187.085 50.2943 186.847 57.148 182.303 62.73C177.759 68.312 170.63 70.5085 166.379 67.6362C162.128 64.7639 162.366 57.9103 166.91 52.3283C171.454 46.7463 178.583 44.5498 182.834 47.422Z" fill="#FF647A"/>
<path fill-rule="evenodd" clip-rule="evenodd" d="M179.638 52.2047C181.155 53.4901 180.739 56.2962 178.708 58.4723C176.678 60.6484 173.801 61.3703 172.284 60.0849C170.767 58.7995 171.183 55.9935 173.214 53.8173C175.245 51.6412 178.121 50.9193 179.638 52.2047Z" fill="#0D1013"/>
<path fill-rule="evenodd" clip-rule="evenodd" d="M75.9048 0.11252C79.3254 -0.328476 81.9382 0.525221 82.5713 2.70172C83.2044 4.87822 80.8972 7.17252 78.8676 7.8799C76.838 8.58709 71.9746 13.3796 70.7197 14.5375C69.4648 15.6954 66.7885 15.665 65.5346 14.5375C64.2807 13.4102 64.4475 11.0248 65.1641 9.35927C66.9239 5.27079 70.8074 0.769826 75.9048 0.11252Z" fill="#0D1013"/>
<path fill-rule="evenodd" clip-rule="evenodd" d="M115.022 0.280379C111.559 0.192701 109.038 1.32134 108.633 3.57305C108.228 5.82476 110.773 7.88956 112.875 8.38901C114.977 8.88865 120.337 13.1968 121.712 14.2294C123.087 15.262 125.758 14.9535 126.893 13.6909C128.028 12.4284 127.611 10.0499 126.721 8.45178C124.535 4.52842 120.184 0.411059 115.022 0.280379Z" fill="#0D1013"/>
<path fill-rule="evenodd" clip-rule="evenodd" d="M79.2398 16.3917C90.6951 16.3917 99.9815 25.664 99.9815 37.102C99.9815 48.54 90.6951 57.8122 79.2398 57.8122C67.7845 57.8122 58.498 48.54 58.498 37.102C58.498 25.664 67.7845 16.3917 79.2398 16.3917Z" fill="#7A5F9A"/>
<path fill-rule="evenodd" clip-rule="evenodd" d="M110.347 14.5328C121.802 14.5328 131.089 23.8075 131.089 35.2483C131.089 46.6891 121.802 55.9638 110.347 55.9638C98.8919 55.9638 89.6055 46.6891 89.6055 35.2483C89.6055 23.8075 98.8919 14.5328 110.347 14.5328Z" fill="#7A5F9A"/>
<path fill-rule="evenodd" clip-rule="evenodd" d="M79.2348 23.7854C86.5981 23.7854 92.5673 29.7475 92.5673 37.1022C92.5673 44.4569 86.5981 50.4191 79.2348 50.4191C71.8715 50.4191 65.9023 44.4569 65.9023 37.1022C65.9023 29.7475 71.8715 23.7854 79.2348 23.7854Z" fill="white"/>
<path fill-rule="evenodd" clip-rule="evenodd" d="M79.2336 30.8116C82.7107 30.8116 85.5296 33.6257 85.5296 37.097C85.5296 40.5684 82.7107 43.3825 79.2336 43.3825C75.7564 43.3825 72.9375 40.5684 72.9375 37.097C72.9375 33.6257 75.7564 30.8116 79.2336 30.8116Z" fill="#0D1013"/>
<path fill-rule="evenodd" clip-rule="evenodd" d="M110.352 21.9366C117.715 21.9366 123.684 27.8987 123.684 35.2534C123.684 42.6082 117.715 48.5702 110.352 48.5702C102.989 48.5702 97.0195 42.6082 97.0195 35.2534C97.0195 27.8987 102.989 21.9366 110.352 21.9366Z" fill="white"/>
<path fill-rule="evenodd" clip-rule="evenodd" d="M110.353 28.9629C113.83 28.9629 116.649 31.777 116.649 35.2483C116.649 38.7197 113.83 41.534 110.353 41.534C106.876 41.534 104.057 38.7199 104.057 35.2483C104.057 31.7768 106.876 28.9629 110.353 28.9629Z" fill="#0D1013"/>
<path d="M144.961 111.784C136.392 111.711 122.295 110.092 109.558 105.742C99.5559 102.327 87.06 96.0447 84.3297 85.5105C84.0967 84.6123 83.1797 84.0726 82.2815 84.3057C81.3833 84.5384 80.8436 85.4553 81.0767 86.3539C86.6289 107.775 125.706 114.922 144.687 115.131C144.716 114.959 145.011 111.956 144.961 111.784Z" fill="white"/>
<path fill-rule="evenodd" clip-rule="evenodd" d="M85.1375 94.4017L84.3545 109.631L100.228 105.547L105.654 119.495L120.068 112.12L128.467 124.457L140.146 114.291L135.91 112.778L115.336 109.147L99.0587 103.52L85.1375 94.4017Z" fill="white"/>
</svg>
