<svg width="24" height="24" viewBox="0 0 24 24" fill="none" xmlns="http://www.w3.org/2000/svg">
<path d="M6.36847 2.3833L2.89522 4.15465L0.955444 8.5581L3.77269 13.0315L9.52362 12.0703L12.8135 3.96867L9.4528 5.12892L9.52362 2.75788L6.15423 4.15465L6.36847 2.3833Z" fill="#FFA740"/>
<path d="M5.69384 6.71231L4.1269 6.21216L3.43645 8.43227L5.01399 8.80496L5.69384 6.71231Z" fill="#6A2C00"/>
<path d="M8.19411 9.73508L6.60904 9.31936L7.32076 7.08862L8.8952 7.44063L8.19411 9.73508Z" fill="#6A2C00"/>
<path d="M14.4699 3.95348L16.201 3.67534L22.438 4.53363L21.2926 12.3471L15.3426 12.0835L12.8776 10.8065L14.4699 3.95348Z" fill="#DE6565"/>
<path d="M15.9479 4.46052L14.6448 5.72688L13.6501 4.12782L15.5969 2.71112L18.5162 3.633L21.1882 3.10084L23.079 4.73308L22.4814 5.72688L20.282 4.73308L18.2991 5.16872L15.9479 4.46052Z" fill="#CA4E4E"/>
<path d="M15.183 5.08355L13.663 4.12901L12.5543 10.5205L14.3722 12.9878L17.4801 12.7102L19.7875 13.5197L22.5018 11.8491L23.0934 4.71068L21.5783 5.08355L21.0752 10.5205L19.3756 11.6273L17.8175 10.8398L15.183 11.2406L13.9932 9.81432L15.183 5.08355Z" fill="#CA4E4E"/>
<path d="M14.6885 8.79652L13.8522 7.61266L15.7659 6.38728L17.4488 8.19865L16.3472 9.13444L15.5583 8.19865L14.6885 8.79652Z" fill="#5A1818"/>
<path d="M18.7337 9.45228L17.8974 8.26842L19.811 7.04304L21.494 8.85441L20.3924 9.7902L19.6034 8.85441L18.7337 9.45228Z" fill="#5A1818"/>
<path d="M7.5301 11.7468L13.8735 10.4753L16.1063 11.5002L18.0081 17.9613L16.7016 20.1056L10.2646 21.883L8.09466 20.4515L6.43771 14.1152L7.5301 11.7468Z" fill="#79E8FF"/>
<path d="M14.6616 11.8186L8.01601 13.5773L9.80076 19.9672L16.3827 18.422L14.6616 11.8186Z" fill="#00C2FF"/>
<path d="M13.1928 14.3771L12.5309 15.2902L12.8596 16.1235L14.5256 16.8227L15.5388 15.4252L15.4638 14.6712L14.592 14.0885L13.9669 14.6789L13.1928 14.3771Z" fill="#003A4C"/>
<path d="M9.39897 15.1819L8.68179 16.1714L9.01588 17.0801L10.8431 17.8319L11.9782 16.308L11.8597 15.5006L10.9151 14.8693L10.2377 15.509L9.39897 15.1819Z" fill="#003A4C"/>
</svg>
