<svg width="24" height="24" viewBox="0 0 24 24" fill="none" xmlns="http://www.w3.org/2000/svg">
<g clip-path="url(#clip0_5842_58)">
<path d="M13.344 7.77109C14.184 1.8383 18.9216 5.13109 20.7024 2.10229C23.7072 9.08149 18.6432 11.8415 17.04 11.4719C15.552 10.8575 13.7472 9.13909 13.344 7.7759V7.77109Z" fill="#FFBF80"/>
<path d="M17.04 11.4719C15.1536 10.7855 13.8864 9.58068 13.344 7.77588L3.0288 17.5247C1.7952 18.6911 1.7664 20.6447 2.9664 21.8447C4.1664 23.0447 6.12 23.0159 7.2864 21.7823L17.04 11.4671V11.4719Z" fill="#992B89"/>
<path d="M9.6816 11.2367C10.3248 12.9647 11.7024 14.2127 13.5792 15.1343L17.04 11.4719C15.3552 10.6319 14.0976 9.42228 13.344 7.77588L9.6816 11.2367Z" fill="#B2A2DD"/>
</g>
<defs>
<clipPath id="clip0_5842_58">
<rect width="24" height="24" fill="white"/>
</clipPath>
</defs>
</svg>
