<svg width="24" height="24" viewBox="0 0 24 24" fill="none" xmlns="http://www.w3.org/2000/svg">
<path d="M5.43 9.48819C5.6752 9.23083 6.08336 9.37197 6.17145 9.71635L7.00673 12.9817C7.00673 9.02178 9.03043 6.77604 10.016 6.05149C12.819 3.9908 15.4886 3.99434 19.3934 3.99953C19.5923 3.9998 19.7945 4.00006 20 4.00006C20 12.2295 15.9071 19.1435 9.41178 19.6108L14.5 11L5.86776 19.2569C5.58198 19.1825 5.29294 19.0967 5.00074 18.9993C3.3266 15.7239 3.42929 11.5881 5.43 9.48819Z" fill="#AE83FB"/>
<path fill-rule="evenodd" clip-rule="evenodd" d="M14.3527 10.0607C14.7467 10.4547 14.7566 11.0905 14.3751 11.4966L5.12662 21.3418C4.56468 21.9399 3.61929 21.9547 3.03894 21.3744C2.45859 20.794 2.47336 19.8486 3.07156 19.2867L12.9167 10.0382C13.3229 9.65668 13.9586 9.66661 14.3527 10.0607Z" fill="#414D5F"/>
</svg>
