<svg width="24" height="24" viewBox="0 0 24 24" fill="none" xmlns="http://www.w3.org/2000/svg">
<path fill-rule="evenodd" clip-rule="evenodd" d="M8.53067 19.1338V9.53432L18.3173 8.13471V15.8512C17.9066 15.7274 17.4374 15.6557 16.9158 15.6557C14.8176 15.6557 13.7322 16.9397 13.7322 17.8653C13.7322 18.9431 14.7326 20.2411 16.9158 20.2411C19.2129 20.2411 20.2657 18.9148 20.2657 17.8653C20.2657 17.8179 20.2632 17.7702 20.2581 17.7224H20.2589V2L8.53067 3.6599C7.05187 3.87791 6.53293 4.29069 6.53293 6.31584V17.1916C6.1348 17.0772 5.6832 17.0114 5.18362 17.0114C3.08542 17.0114 1.99998 18.2954 2 19.221C2 20.2988 3.00043 21.5968 5.18362 21.5968C7.48076 21.5968 8.53353 20.2705 8.53353 19.221C8.53353 19.1921 8.53258 19.163 8.53067 19.1338Z" fill="#D83ADB"/>
</svg>
