<svg width="24" height="24" viewBox="0 0 24 24" fill="none" xmlns="http://www.w3.org/2000/svg">
<path d="M19.2 12.1371L14.1257 9.46283L18.3086 1.3714C18.3771 1.23426 18.3771 1.09711 18.3771 0.891398C18.3086 0.754255 18.24 0.617112 18.1714 0.479969C17.8971 0.274255 17.5543 0.274255 17.3486 0.479969L4.86857 10.4228C4.73143 10.4914 4.66285 10.6285 4.59428 10.7657C4.52571 10.9028 4.52571 11.04 4.52571 11.1771C4.52571 11.3143 4.59428 11.4514 4.66285 11.5885C4.8 11.6571 4.86857 11.7257 5.00571 11.7943L10.08 14.4685L5.89714 22.56C5.82857 22.6971 5.82857 22.8343 5.82857 23.04C5.89714 23.1771 5.96571 23.3143 6.03428 23.4514C6.30857 23.6571 6.65143 23.6571 6.85714 23.4514L19.2686 13.5771C19.4057 13.5085 19.4743 13.3714 19.5429 13.2343C19.6114 13.0971 19.6114 12.96 19.6114 12.8228C19.6114 12.6857 19.5429 12.5485 19.4743 12.4114C19.4057 12.2743 19.3371 12.2057 19.2 12.1371Z" fill="#FFC933"/>
</svg>
