<svg width="72" height="54" viewBox="0 0 72 54" fill="none" xmlns="http://www.w3.org/2000/svg">
<path d="M36 6.50301C36 5.16665 37.6157 4.4974 38.5607 5.44235L40 6.88169L41.4393 5.44235C42.3843 4.4974 44 5.16665 44 6.50301V10.8817H36V6.50301Z" fill="#AD87FF"/>
<rect x="45" y="10.8816" width="7" height="37" fill="#EEEEEE"/>
<path d="M17 12.8816C17 11.777 17.8954 10.8816 19 10.8816H46C47.1046 10.8816 48 11.777 48 12.8816V45.8816C48 46.9862 47.1046 47.8816 46 47.8816H19C17.8954 47.8816 17 46.9862 17 45.8816V12.8816Z" fill="#6161E3"/>
<path d="M17 12.8816C17 11.777 17.8954 10.8816 19 10.8816H21V47.8816H19C17.8954 47.8816 17 46.9862 17 45.8816V12.8816Z" fill="#19197F"/>
<path d="M36.4416 29.7702L34.4759 24.5534L32.3817 29.7486L36.4416 29.7702ZM39.0026 36.4681L37.9421 33.6662L30.8307 33.6284L29.7434 36.4189C29.4381 37.2695 28.6627 37.8113 27.7464 37.7265C27.288 37.7241 26.7518 37.5614 26.4525 37.1737C26.1527 36.8659 25.9978 36.399 26 35.933C26.0012 35.6933 26.0026 35.387 26.1609 35.1615L32.0448 20.8122C32.5881 19.4969 33.4292 18.8755 34.5817 18.8816C35.7342 18.8878 36.5694 19.518 37.1 20.8391L42.8465 35.0904C42.924 35.3305 43.0011 35.6372 43 35.8635C42.9158 37.0348 41.9945 37.962 40.8555 37.8761C39.9916 37.7916 39.3128 37.3219 39.0026 36.4681Z" fill="white"/>
<path d="M52 10.8816H54C55.1046 10.8816 56 11.777 56 12.8816V45.8816C56 46.9862 55.1046 47.8816 54 47.8816H52V10.8816Z" fill="#6161E3"/>
</svg>
