<svg width="24" height="24" viewBox="0 0 24 24" fill="none" xmlns="http://www.w3.org/2000/svg">
<path fill-rule="evenodd" clip-rule="evenodd" d="M3 8.86495C3 6.17811 5.16935 4 7.84538 4H16.4791C19.1551 4 21.3245 6.17811 21.3245 8.86495V14.7029C21.3245 17.3897 19.1551 19.5679 16.4791 19.5679H15.244L8.87687 23.7371C8.50431 23.9811 8.02864 23.6343 8.14432 23.2031L9.11947 19.5679H7.84538C5.16935 19.5679 3 17.3897 3 14.7029V8.86495Z" fill="#765FDE"/>
<path fill-rule="evenodd" clip-rule="evenodd" d="M16.5464 2.11052C17.0604 2.36854 17.2687 2.99604 17.0118 3.51207L15.9713 5.60139C15.7143 6.11743 15.0893 6.3266 14.5754 6.06858C14.0614 5.81056 13.8531 5.18306 14.1101 4.66702L15.1505 2.5777C15.4075 2.06166 16.0325 1.8525 16.5464 2.11052Z" fill="#FF6170"/>
<path fill-rule="evenodd" clip-rule="evenodd" d="M10.4665 7.98861C11.2799 7.30486 12.3728 6.80537 13.5689 7.07389C14.9134 7.37572 15.6415 8.36863 15.8755 9.48728C16.0964 10.5439 15.8984 11.7356 15.4901 12.7784C15.0789 13.8287 14.4046 14.8567 13.5252 15.5608C12.6317 16.2761 11.4485 16.7053 10.1603 16.3132C8.88288 15.9243 8.22908 14.9269 8.0529 13.8281C7.88673 12.7917 8.12809 11.6499 8.55265 10.6551C8.98128 9.65082 9.64644 8.67793 10.4665 7.98861ZM10.7641 14.3138C10.38 14.1968 10.1806 13.953 10.1074 13.496C10.0241 12.9764 10.1369 12.2477 10.4653 11.4781C10.7897 10.718 11.2764 10.0326 11.8023 9.59062C12.3348 9.14303 12.7819 9.03811 13.1149 9.11287C13.5177 9.20329 13.7397 9.44186 13.839 9.91659C13.9512 10.4533 13.8655 11.2169 13.5535 12.014C13.2444 12.8035 12.7617 13.4998 12.2278 13.9273C11.708 14.3435 11.2216 14.453 10.7641 14.3138Z" fill="white"/>
</svg>
